<!DOCTYPE svg PUBLIC "-//W3C//DTD SVG 1.1//EN" "http://www.w3.org/Graphics/SVG/1.1/DTD/svg11.dtd">
<!-- Uploaded to: SVG Repo, www.svgrepo.com, Transformed by: SVG Repo Mixer Tools -->
<svg fill="#fcdd77" width="800px" height="800px" viewBox="0 0 24 24" xmlns="http://www.w3.org/2000/svg">

<g id="SVGRepo_bgCarrier" stroke-width="0"/>

<g id="SVGRepo_tracerCarrier" stroke-linecap="round" stroke-linejoin="round"/>

<g id="SVGRepo_iconCarrier"> <g id="Folder_On" data-name="Folder On"> <path d="M19.435,19.94H4.565a2.5,2.5,0,0,1-2.5-2.5V6.56a2.5,2.5,0,0,1,2.5-2.5h5.27A2.5,2.5,0,0,1,12.292,6.1l.042.222a.5.5,0,0,0,.491.408h6.61a2.5,2.5,0,0,1,2.5,2.5v8.21A2.5,2.5,0,0,1,19.435,19.94ZM4.565,5.06a1.5,1.5,0,0,0-1.5,1.5V17.44a1.5,1.5,0,0,0,1.5,1.5h14.87a1.5,1.5,0,0,0,1.5-1.5V9.23a1.5,1.5,0,0,0-1.5-1.5h-6.61a1.5,1.5,0,0,1-1.474-1.225l-.042-.221A1.5,1.5,0,0,0,9.835,5.06Z"/> </g> </g>

</svg>